<svg xmlns="http://www.w3.org/2000/svg" viewBox="0 0 500 500"><g id="freepik--background-complete--inject-88"><polygon points="352.33 62.57 352.33 120.07 360.4 120.07 360.4 134.01 374.35 120.07 450.89 120.07 450.89 62.57 352.33 62.57" style="fill:#ebebeb"/><path d="M420.24,91.32a4.67,4.67,0,1,0,4.67-4.67A4.67,4.67,0,0,0,420.24,91.32Z" style="fill:#fff"/><path d="M396.94,91.32a4.67,4.67,0,1,0,4.67-4.67A4.67,4.67,0,0,0,396.94,91.32Z" style="fill:#fff"/><path d="M373.64,91.32a4.67,4.67,0,1,0,4.66-4.67A4.67,4.67,0,0,0,373.64,91.32Z" style="fill:#fff"/><polygon points="186.99 244.73 186.99 325.17 175.7 325.17 175.7 344.68 156.19 325.17 49.11 325.17 49.11 244.73 186.99 244.73" style="fill:#fff"/><path d="M187,244.73c.07,22.87.58,57.84.6,80.44v.59H187l-11.29.05.65-.65.09,19.51v1.79l-1.27-1.26-19.59-19.44c-23.56.79-81.36.11-107.46.38v-1l.13-80.44v-.86h.85c34.38.16,103.52.54,137.88.85Zm0,0c-34.36.31-103.53.69-137.88.85l.85-.85.13,80.44-1-1c26.9,0,80.55.08,107.44.13l.24.25,19.44,19.58-1.27.53.09-19.51v-.66h.65l11.29.05-.6.6c.15-22.45.41-57.74.6-80.44Z" style="fill:#ebebeb"/><path d="M92,285a6.54,6.54,0,1,1-6.54-6.53A6.53,6.53,0,0,1,92,285Z" style="fill:#ebebeb"/><path d="M124.59,285a6.54,6.54,0,1,1-6.54-6.53A6.53,6.53,0,0,1,124.59,285Z" style="fill:#ebebeb"/><path d="M157.19,285a6.54,6.54,0,1,1-6.54-6.53A6.53,6.53,0,0,1,157.19,285Z" style="fill:#ebebeb"/><polygon points="67.35 92.56 71.73 99.09 79.3 101.24 74.44 107.42 74.73 115.28 67.35 112.57 59.97 115.28 60.26 107.42 55.41 101.24 62.97 99.09 67.35 92.56" style="fill:#ebebeb"/><polygon points="101.14 92.56 105.52 99.09 113.08 101.24 108.23 107.42 108.52 115.28 101.14 112.57 93.75 115.28 94.05 107.42 89.19 101.24 96.76 99.09 101.14 92.56" style="fill:#ebebeb"/><polygon points="134.92 92.56 139.31 99.09 146.87 101.24 142.01 107.42 142.31 115.28 134.92 112.57 127.54 115.28 127.83 107.42 122.98 101.24 130.54 99.09 134.92 92.56" style="fill:#ebebeb"/><polygon points="168.71 92.56 173.09 99.09 180.66 101.24 175.8 107.42 176.09 115.28 168.71 112.57 161.33 115.28 161.62 107.42 156.76 101.24 164.33 99.09 168.71 92.56" style="fill:#ebebeb"/><path d="M210.41,116l-7.91-2.9-7.91,2.9.31-8.42L189.7,101l8.1-2.3,4.7-7,4.69,7,8.11,2.3-5.2,6.63Zm-7.91-4,6.85,2.51-.27-7.29,4.51-5.75-7-2-4.07-6.07-4.07,6.07-7,2,4.51,5.75-.27,7.29Z" style="fill:#ebebeb"/><polygon points="202.5 112.57 202.5 92.56 198.12 99.09 190.55 101.24 195.41 107.42 195.11 115.28 202.5 112.57" style="fill:#ebebeb"/><g id="freepik--xsrjP0--inject-88"><path d="M379.37,245.18c-2-1.23-3.67-3-6.29-2.75-1,.11-.79-.73-.8-1.27l-.12-29.56c0-.71,0-1.3.82-1.7,7.51-3.82,10.75-11.3,15.34-17.69a29.43,29.43,0,0,0,5.38-22.37c-.32-2.22.71-3.21,2.71-3.67,2.4-.56,4.8.1,5.63,1.75a39.85,39.85,0,0,1,4.34,12.89c.44,3.74-.88,7.38-1.34,11.08-.33,2.7-1,5.38-1.46,8.12.66.48,1.43.23,2.14.23q12.48,0,25-.07c3.5,0,5.23,1,5.72,3.32a6.65,6.65,0,0,1-3.6,7.22c-.62.32-1.75,0-1.82,1s1.09.89,1.66,1.29c3,2.06,2.48,6.32-1,8.8-.84.59-2.46.32-2.5,1.55,0,1,1.51,1,2.2,1.65,2.44,2.4,1.24,6.89-2.39,8.72a11.6,11.6,0,0,0-1.46.56c-.41.28-.81.6,0,1.16,3.61,2.56,3.55,6.15-.07,8.78l-1.08.78a7.05,7.05,0,0,1-4.38,1q-19.57.11-39.16.14A4.64,4.64,0,0,1,379.37,245.18Z" style="fill:#ebebeb;fill-rule:evenodd"/><path d="M342.2,227.92c0-6.25,0-12.52-.09-18.77,0-1.28.12-1.9,1.68-1.89,7.64.07,15.26,0,22.9-.07,1.5,0,1.73.5,1.73,1.83q0,18.89.13,37.78c0,1.61-.42,2.06-2,2-7.41-.06-14.81-.05-22.21.09-1.84,0-2.1-.61-2.09-2.22C342.3,240.45,342.22,234.19,342.2,227.92Z" style="fill:#ebebeb;fill-rule:evenodd"/></g><g id="freepik--xsrjp0--inject-88"><path d="M234.81,328.84c1.48.94,2.77,2.29,4.76,2.1.77-.07.6.56.6,1q0,11.23,0,22.44c0,.54,0,1-.63,1.29-5.71,2.88-8.19,8.54-11.68,13.39a22.32,22.32,0,0,0-4.15,17c.24,1.69-.54,2.44-2.06,2.78-1.83.42-3.64-.08-4.27-1.34a30,30,0,0,1-3.26-9.8c-.33-2.83.69-5.6,1-8.4.26-2.06.74-4.08,1.13-6.16-.5-.37-1.08-.18-1.62-.19H195.74c-2.67,0-4-.77-4.34-2.53a5.07,5.07,0,0,1,2.75-5.48c.47-.24,1.33,0,1.39-.76s-.83-.68-1.26-1c-2.29-1.56-1.86-4.8.78-6.67.64-.45,1.87-.24,1.9-1.17,0-.75-1.14-.74-1.66-1.26-1.85-1.83-.93-5.23,1.83-6.61a8.23,8.23,0,0,0,1.11-.43c.31-.21.62-.44,0-.88-2.73-2-2.67-4.67.08-6.66l.82-.59a5.35,5.35,0,0,1,3.33-.72q14.86,0,29.72,0A3.55,3.55,0,0,1,234.81,328.84Z" style="fill:#ebebeb;fill-rule:evenodd"/><path d="M263,342c0,4.75,0,9.51,0,14.26,0,1-.09,1.44-1.27,1.42q-8.7-.1-17.39,0c-1.13,0-1.31-.38-1.3-1.39q0-14.34,0-28.68c0-1.22.33-1.57,1.55-1.54,5.62.06,11.24.07,16.86,0,1.4,0,1.59.47,1.57,1.7C262.93,332.53,263,337.28,263,342Z" style="fill:#ebebeb;fill-rule:evenodd"/></g></g><g id="freepik--Stars--inject-88"><polygon points="316.23 95.72 321.31 103.04 329.85 105.61 324.44 112.7 324.64 121.61 316.23 118.66 307.82 121.61 308.02 112.7 302.62 105.61 311.16 103.04 316.23 95.72" style="fill:#B5A3F5"/><polygon points="141.15 220.47 146.22 227.8 154.76 230.36 149.36 237.45 149.56 246.36 141.15 243.42 132.73 246.36 132.94 237.45 127.53 230.36 136.07 227.8 141.15 220.47" style="fill:#B5A3F5"/><polygon points="365.66 210.22 368.2 213.89 372.46 215.17 369.76 218.71 369.87 223.17 365.66 221.7 361.45 223.17 361.55 218.71 358.85 215.17 363.12 213.89 365.66 210.22" style="fill:#B5A3F5"/><polygon points="286.98 80.45 289.52 84.11 293.79 85.39 291.09 88.94 291.19 93.4 286.98 91.92 282.78 93.4 282.88 88.94 280.18 85.39 284.45 84.11 286.98 80.45" style="fill:#B5A3F5"/></g><g id="freepik--speech-bubble-2--inject-88"><polygon points="375.05 273.33 375.05 295.82 379.49 295.82 379.49 303.49 387.16 295.82 452.09 295.82 452.09 273.33 375.05 273.33" style="fill:#fff"/><path d="M375.05,273.33c.07,7.58.27,15.08.3,22.49l-.3-.3,4.44,0h.32v.33l0,7.67-.63-.27,7.62-7.7.13-.12h.18l64.93-.07-.49.49,0-22.49.45.45c-22.19,0-54.5-.27-77-.45Zm0,0c22.76-.12,54.58-.47,77-.45h.45v.45l0,22.49v.49h-.49l-64.93-.06.3-.13-7.71,7.63-.64.63v-.89l0-7.67.33.33-4.44,0h-.3v-.3c0-7.58.23-15.08.29-22.49Z" style="fill:#263238"/><polygon points="386.54 279.3 388.29 281.91 391.32 282.77 389.38 285.24 389.49 288.39 386.54 287.3 383.58 288.39 383.7 285.24 381.76 282.77 384.79 281.91 386.54 279.3" style="fill:#B5A3F5"/><polygon points="400.06 279.3 401.81 281.91 404.83 282.77 402.89 285.24 403.01 288.39 400.06 287.3 397.1 288.39 397.22 285.24 395.27 282.77 398.3 281.91 400.06 279.3" style="fill:#B5A3F5"/><polygon points="413.57 279.3 415.32 281.91 418.35 282.77 416.41 285.24 416.52 288.39 413.57 287.3 410.62 288.39 410.74 285.24 408.79 282.77 411.82 281.91 413.57 279.3" style="fill:#B5A3F5"/><polygon points="427.09 279.3 428.84 281.91 431.87 282.77 429.92 285.24 430.04 288.39 427.09 287.3 424.13 288.39 424.25 285.24 422.31 282.77 425.33 281.91 427.09 279.3" style="fill:#B5A3F5"/><polygon points="440.6 287.3 440.6 279.3 438.85 281.91 435.82 282.77 437.77 285.24 437.65 288.39 440.6 287.3" style="fill:#B5A3F5"/><path d="M440.6,279.3l1.84,2.55c.7.1,2.06.54,3,.76l.23.06-.15.2-1.9,2.51,0-.14.14,3.14v.34l-.32-.12-3-1.06h.17l-3,1.06-.33.12,0-.34.13-3.14.05.14-1.91-2.51-.15-.2.24-.06c.92-.22,2.29-.67,3-.76l1.83-2.55Zm0,0L438.93,282c-1,.39-2.05.64-3.06,1l.08-.26,2,2.44a.13.13,0,0,1,0,.14l-.1,3.15-.31-.23,2.95-1.1c.09,0,.08,0,.17,0l2.95,1.1-.31.23-.1-3.15c0-.08,0-.08,0-.14l2-2.44.09.26c-1-.33-2.08-.58-3.06-1l-1.68-2.66Z" style="fill:#263238"/></g><g id="freepik--speech-bubble-1--inject-88"><polygon points="160.03 38.57 160.03 76.85 164.46 76.85 164.46 84.52 172.13 76.85 250.3 76.85 250.3 38.57 160.03 38.57" style="fill:#fff"/><path d="M160,38.57c.13,11.29.22,27.19.28,38.28l-.28-.28h4.73v.29l0,7.67-.56-.23,7.64-7.69.11-.11,58.78-.13,19.54,0-.45.44.09-38.28.36.37c-22.5,0-67.77-.23-90.27-.37Zm0,0c22.49-.13,67.78-.34,90.27-.36h.36v.36l.09,38.28v.45h-.45c-21.8.11-56.12,0-78.17-.08l.26-.11-7.7,7.64-.55.55v-.78l0-7.67.29.3-4.43,0h-.28C159.7,65.88,160,50,160,38.57Z" style="fill:#263238"/><path d="M191.06,57.76a10.9,10.9,0,1,1-10.9-10.9A10.9,10.9,0,0,1,191.06,57.76Z" style="fill:#ebebeb"/><circle cx="180.3" cy="56.19" r="3.43" style="fill:#fff"/><path d="M174.38,65.65v1.41a10.91,10.91,0,0,0,3.25,1.36,11.18,11.18,0,0,0,8.6-1.36V65.65a5.93,5.93,0,1,0-11.85,0Z" style="fill:#fff"/><rect x="198.78" y="51.14" width="40.88" height="0.62" style="fill:#ebebeb"/><rect x="198.78" y="55.38" width="40.88" height="0.62" style="fill:#ebebeb"/><rect x="198.78" y="59.62" width="40.88" height="0.62" style="fill:#ebebeb"/><rect x="198.78" y="63.86" width="20.26" height="0.62" style="fill:#ebebeb"/></g></svg>