
<?xml version="1.0" standalone="no"?>
<!DOCTYPE svg PUBLIC "-//W3C//DTD SVG 20010904//EN"
 "http://www.w3.org/TR/2001/REC-SVG-20010904/DTD/svg10.dtd">
<svg version="1.0" xmlns="http://www.w3.org/2000/svg"
 width="500.000000pt" height="500.000000pt" viewBox="0 0 500.000000 500.000000"
 preserveAspectRatio="xMidYMid meet">

<g transform="translate(0.000000,500.000000) scale(0.100000,-0.100000)"
fill="#000000" stroke="none">
<path d="M2335 3653 c-172 -23 -389 -170 -462 -313 -27 -53 -28 -59 -26 -195
1 -77 6 -167 12 -200 5 -33 15 -96 21 -140 21 -154 33 -216 43 -212 21 7 35
63 99 402 6 33 22 88 36 123 20 51 33 69 71 95 40 28 56 32 121 35 65 3 85 0
150 -26 115 -45 210 -66 283 -59 34 2 68 6 75 8 8 3 20 -17 32 -51 13 -39 31
-66 61 -92 24 -21 46 -38 49 -38 10 0 47 -80 59 -125 5 -22 13 -92 17 -155 10
-169 30 -196 57 -77 45 199 60 306 61 432 1 121 -1 133 -23 168 -31 50 -94 96
-144 104 -29 4 -41 12 -49 32 -44 109 -115 186 -223 237 -101 48 -200 63 -320
47z"/>
<path d="M2055 1608 c-99 -32 -261 -83 -359 -113 -134 -41 -187 -61 -208 -82
-31 -30 -99 -129 -147 -215 l-32 -56 43 -35 c75 -61 214 -146 320 -197 574
-274 1253 -228 1772 121 160 108 149 85 93 193 -53 101 -108 179 -148 208 -29
22 -148 59 -504 158 -219 61 -250 68 -258 54 -13 -23 -66 -42 -139 -50 -78 -8
-168 15 -204 52 -14 13 -30 24 -37 23 -7 -1 -93 -28 -192 -61z"/>
</g>
</svg>
